<svg version="1.1" xmlns="http://www.w3.org/2000/svg" xmlns:xlink="http://www.w3.org/1999/xlink" x="0px" y="0px" viewBox="0 0 124.9 26" xml:space="preserve">
	<path d="M10.9,12.5l11.6,12.1h-6.9L6.4,15v9.6H1V1.4h5.4v8.8l8.5-8.8h6.6L10.9,12.5z M86.8,4.5c2.2,2.3,3.3,5.3,3.3,9.1l0,1.1H72.5
		c0,1.6,0.7,2.9,1.8,3.9c1.1,1,2.5,1.4,4.3,1.4c2.2,0,4.4-0.9,6-2.8l3.5,3.6c-1.2,1.7-2.5,2.4-3.6,3c-1.6,0.8-3.6,1.2-5.8,1.2
		c-3.5,0-6.3-1.1-8.5-3.4c-2.2-2.3-3.3-5.1-3.3-8.5c0-3.5,1.1-6.4,3.3-8.7C72.3,2.2,75,1,78.3,1C81.8,1,84.7,2.2,86.8,4.5z
		 M84.5,10.1c-0.4-1.3-1.1-2.3-2.2-3.1c-1.1-0.8-2.3-1.2-3.8-1.2c-1.6,0-2.9,0.4-4.1,1.3c-0.7,0.6-1.7,1.7-1.9,3H84.5z M118.5,1.4
		v13.5L105.9,1.5c0,0-0.1-0.1-0.2-0.1h-2.3v23.2h5.4V11.8l12.2,12.7c0.1,0.1,0.1,0.1,0.2,0.1h2.2V1.4H118.5z M50.2,4.5
		c2.2,2.3,3.3,5.3,3.3,9.1l0,1.1H35.8c0,1.6,0.7,2.9,1.8,3.9c1.1,1,2.5,1.4,4.3,1.4c2.1,0,3.9-0.7,5.4-2.2l3.7,3.5
		c-0.9,1-2.1,2-3.2,2.5C46.2,24.6,44.2,25,42,25c-3.5,0-6.3-1.1-8.5-3.4c-2.2-2.3-3.3-5.1-3.3-8.5c0-3.5,1.1-6.4,3.3-8.7
		C35.7,2.2,38.4,1,41.7,1C45.2,1,48,2.2,50.2,4.5z M47.9,10.1c-0.4-1.3-1.1-2.3-2.2-3.1c-1.1-0.8-2.3-1.2-3.8-1.2
		c-1.6,0-2.9,0.4-4.1,1.3c-0.7,0.6-1.7,1.7-1.9,3H47.9z"></path>
</svg>