<?xml version="1.0" standalone="no"?>
<!DOCTYPE svg PUBLIC "-//W3C//DTD SVG 20010904//EN"
 "http://www.w3.org/TR/2001/REC-SVG-20010904/DTD/svg10.dtd">
<svg version="1.0" xmlns="http://www.w3.org/2000/svg"
 width="500.000000pt" height="500.000000pt" viewBox="0 0 500.000000 500.000000"
 preserveAspectRatio="xMidYMid meet">
<metadata>
Created by potrace 1.11, written by Peter Selinger 2001-2013
</metadata>
<g transform="translate(0.000000,500.000000) scale(0.100000,-0.100000)"
fill="#000000" stroke="none">
<path d="M1920 4645 c0 -3 20 -60 44 -128 24 -67 54 -151 66 -187 l23 -65
-121 -325 c-66 -179 -143 -386 -171 -460 -140 -374 -271 -729 -271 -735 0 -4
-6 -21 -14 -38 -8 -18 -31 -78 -52 -134 -20 -57 -40 -103 -44 -103 -3 0 -48 9
-99 20 -51 11 -139 23 -196 27 l-103 6 -46 -94 c-74 -154 -107 -300 -109 -491
-3 -171 36 -355 104 -499 l41 -87 -77 -208 c-42 -115 -81 -218 -86 -229 -5
-11 -51 -135 -103 -275 -52 -140 -97 -263 -101 -273 -7 -16 2 -17 135 -15
l142 3 78 215 c96 262 246 677 270 745 l18 50 108 28 c199 52 363 128 484 225
44 35 85 72 90 83 10 18 12 18 33 -6 32 -37 96 -52 208 -49 98 2 141 15 169
49 12 14 18 12 59 -28 145 -138 354 -237 615 -292 38 -7 72 -17 77 -22 4 -4
42 -105 84 -223 75 -212 122 -342 226 -632 l53 -148 472 0 473 0 -9 28 c-4 15
-61 169 -125 342 -64 173 -124 338 -134 365 -27 74 -167 456 -208 565 -19 52
-48 131 -65 175 -17 44 -31 85 -33 90 -1 6 -5 17 -8 25 -3 8 -29 76 -56 150
-27 74 -65 178 -84 230 -67 182 -259 706 -292 795 -18 50 -67 182 -108 295
-41 113 -114 311 -161 440 -48 129 -90 244 -95 255 -5 11 -12 29 -14 40 -3 11
-15 45 -26 75 -12 30 -52 138 -89 240 l-69 185 -451 3 c-249 1 -452 0 -452 -3z
m296 -831 c20 -54 53 -151 75 -214 22 -63 44 -124 49 -135 5 -11 16 -40 24
-65 8 -25 31 -90 51 -145 20 -55 41 -111 45 -125 5 -14 26 -74 48 -135 22 -60
63 -175 91 -255 28 -80 55 -153 61 -162 5 -10 10 -24 10 -31 0 -8 11 -41 25
-75 14 -34 25 -64 25 -67 0 -2 -28 -19 -62 -36 -83 -42 -191 -116 -253 -172
l-49 -46 -33 30 c-35 30 -40 31 -163 35 -104 3 -164 -11 -193 -45 l-23 -28
-36 36 c-63 63 -167 138 -246 176 -23 11 -42 24 -42 28 0 8 103 298 164 462
19 50 78 212 131 360 54 149 126 349 162 445 35 96 71 196 80 223 9 26 18 46
20 44 2 -2 19 -48 39 -103z"/>
</g>
</svg>
