<?xml version="1.0" encoding="utf-8"?>
<!-- Generator: Adobe Illustrator 19.0.1, SVG Export Plug-In . SVG Version: 6.00 Build 0)  -->
<svg version="1.1" xmlns="http://www.w3.org/2000/svg" xmlns:xlink="http://www.w3.org/1999/xlink" x="0px" y="0px"
	 viewBox="0 0 798.7 858.7" style="enable-background:new 0 0 798.7 858.7;" xml:space="preserve">
<style type="text/css">
	.st0{fill:#FFFFFF;stroke:#0B0B0A;stroke-miterlimit:10;}
	.st1{fill:none;}
</style>
<g id="Layer_1">
	<polygon class="st1" points="190.1,516.5 189.9,308.5 189.3,308.5 189.3,308.4 12.8,308.6 12.8,308.5 0.1,308.5 0.2,403.3 
		3.4,403.3 3.5,500.3 0.1,500.3 0.2,614.9 3.6,614.9 3.6,674.1 3.6,674.3 3.6,674.3 3.6,674.5 4.3,674.5 93.1,696.5 93.6,694.5 
		93.8,694.5 140.2,509.7 238,534.9 239.6,529 	"/>
	<path class="st1" d="M452.8,330.4l-8-2l0-61.5l-3.6,0v0l-194.9,0.2l0,6.1h0l0,9.2l-0.1,0l0.1,124.4h-0.1l0.1,64.8l-0.3,1.2
		l161.7,40l1.7-7l0,0L452.8,330.4z M268.4,283.9l-16.5,0.4l0-1.8l-2.5,0l0-9.2l19.1,0L268.4,283.9z"/>
	<line x1="515.7" y1="533.2" x2="518.8" y2="534"/>
	<path class="st1" d="M617.6,373.4L573.7,362l0.6-2.3L522,346.5l-0.5,1.9l-73.8-19.2l-0.9,3.6l-42.5,171.8l0,0l-1.7,7l170.6,42
		l1.2-4.7l0,0l43.2-175.2l0,0L617.6,373.4z"/>
	<path class="st1" d="M140.6,504.1l0-0.1l-5.8-1.5l-0.1,0.2l-0.1,0l-1.6,6.6l0,0L87.5,691.3l0,0l-0.9,3.6l83.5,20.7l-0.3,1.2
		l87.1,22l0,0.1l6.3,1.6l20.7-83.6l0.1,0l1.5-6l-33-8.1l7.8-31.7l-0.1,0l3.6-14.4l60.5,15l0,0l5.7,1.4l12.9-52.3l0.1,0l1.6-6.6
		L140.6,504.1z M259.4,728.5l0.7-2.4l-0.6,2.4L259.4,728.5z"/>
	<path class="st1" d="M338.9,553.3l-1.3,5.2l0,0l-0.2,1l0,0L326,605.6l-60.5-15l0,0l-6.6-1.6l-14.4,58.2l0,0l0,0l33.3,8.2
		l-17.9,72.4l0,0l-2.6,10.7l84.7,21.4l0-0.1l8.7,2.1l0.3-1.2l75.3,18.6l0.5-1.8l0,0l47.1-190.5l0.1-0.4L338.9,553.3z M335.6,591.1
		c2,1.5,4.9,3.2,4.9,3.2l-5.8,18c0,0-1.5-0.4-4-1.2L335.6,591.1z M264.5,597c-0.6,1.6-1.3,3.6-2.1,6l1.5-6.1L264.5,597z
		 M351.8,756.8l32.8,8.9l-33-8.1L351.8,756.8z"/>
	<polygon class="st1" points="445.3,96.9 445.4,96.9 445.4,90.9 445.2,90.9 445.2,90.9 434.5,90.9 434.5,90.9 245.1,91.1 245.1,96 
		245.1,274 250.9,274 250.9,273.3 440.4,273.1 440.4,273.3 444.8,273.3 444.7,187 445.3,187 	"/>
	<polygon class="st1" points="445.5,86.6 444.2,86.6 444.2,0.1 444,0.1 403.1,0.1 403.1,0 47.2,0.3 47.2,0.3 6.3,0.3 6.3,0.3 
		2.6,0.3 2.6,87 0,87 0.1,182.6 12.3,182.6 12.3,182.6 192.3,182.4 195.7,182.4 195.7,182.4 195.8,182.4 195.8,175.9 195.7,175.9 
		195.7,148.3 195.7,148.3 195.6,136.5 245.1,136.5 248.3,136.5 250.9,136.5 250.9,97 445.4,96.8 445.4,96.8 445.5,96.8 	"/>
	<polygon class="st1" points="671.8,635.9 563.5,609.1 563.5,609.1 466.8,584.9 465.3,591.2 465.3,591.2 419.6,775.9 419.6,775.9 
		419.2,777.6 500.7,797.7 500.3,799.4 510.4,801.9 510.4,801.9 593.7,822.5 595.8,814 596,814 627.2,688 625.9,687.7 626,687.1 
		652.2,692.6 651.9,693.6 657.3,694.9 670.5,641.5 670.5,641.5 	"/>
	<path class="st1" d="M798.5,799L798.5,799l0-209.4H671.4h-2.9h-2.9v50.8l-12.7,48.5l-31.3-7.7l-32.5,131.2l0,0l-2,7.9l83.2,21.1
		l0,0.1l10.3,2.5l0.3-1.1l63.9,15.7l53.8,0.1L798.5,799z M671.5,631.8l-0.1,0.3v-1.6L671.5,631.8z"/>
	<path class="st1" d="M798,452.5l0-35.4l-92.9-23.2l0.4-1.6l-77.2-18.8l0-0.1l-16.1-3.9l-2.3,9.4l-0.1,0l-41.3,167L567,552
		l98.5,24.7v5.9c0,0,0,0,0,0l0,5.7v5.7h0h5.8h127.1L798,452.5z"/>
</g>
<g id="Слой_2">
</g>
</svg>
