<?xml version="1.0" encoding="utf-8"?>
<!-- Generator: Adobe Illustrator 19.0.1, SVG Export Plug-In . SVG Version: 6.00 Build 0)  -->
<svg version="1.1" xmlns="http://www.w3.org/2000/svg" xmlns:xlink="http://www.w3.org/1999/xlink" x="0px" y="0px"
	 viewBox="0 0 798.7 858.7" style="enable-background:new 0 0 798.7 858.7;" xml:space="preserve">
<style type="text/css">
	.st0 {fill:none;}
	.plan { fill:red; opacity:0; cursor:pointer; }
	<!--.test1{fill:red;}-->
    .plan2_t_1:hover {
      opacity: .4;
    }
	<!--.test2{fill:white;}-->
    .plan2_t_2:hover, 
    .plan2_t_3:hover, 
    .plan2_t_4:hover, 
    .plan2_t_5:hover, 
    .plan2_t_6:hover, 
    .plan2_t_7:hover, 
    .plan2_t_8:hover, 
    .plan2_t_9:hover, 
    .plan2_t_10:hover {
      opacity: .4;
    }
</style>
<g id="Layer_1">
	<polygon class="st0 plan plan2_t_1" points="443.8,0.3 195.8,0.3 188.4,0.3 2.6,0.3 2.6,182.4 195.8,182.4 195.8,153.9 235.2,153.9 235.2,96.8 
		443.8,96.8 	"/>
	<polygon class="st0 plan plan2_t_2" points="189.3,467.9 189.3,308.4 0.1,308.4 0.1,500.3 6,500.3 0,504.7 0,674.3 91.3,696.1 139.3,509.7 
		190.1,522.8 	"/>
	<polygon class="st0 plan plan2_t_3" points="135,502.5 87.3,692.8 262,740.3 284.7,650.7 251.3,642.9 262.6,596.6 330.2,612.2 344.5,554.5 	"/>
	<polygon class="st0 plan plan2_t_4" points="473.7,587.1 426.3,779.3 257.9,735.4 278,655.6 244.4,647.3 260.4,589.6 324.9,605.3 338.6,554.7 	"/>
	<polygon class="st0 plan plan2_t_5" points="466.7,585.3 670.4,636.3 656.2,696.5 626.5,690.2 593.5,822.4 419.6,775.9 	"/>
	<polygon class="st0 plan plan2_t_6" points="587.2,820.6 744.9,858.6 798.7,858.7 798.1,587.9 667.4,587.9 665,640.2 652.9,688.9 621.6,681.2 	"/>
	<polygon class="st0 plan plan2_t_7" points="796.4,597.5 798,417.1 613.1,369.6 568.1,551.2 667.1,576.3 667.1,597.5 	"/>
	<polygon class="st0 plan plan2_t_8" points="403,511.7 447.9,329.2 620,374.7 577,554.7 	"/>
	<polygon class="st0 plan plan2_t_9" points="246.3,267.1 444.8,267 444.8,329.2 452.2,332.4 407.3,512.7 246.2,472.1 	"/>
	<polygon class="st0 plan plan2_t_10" points="229.6,91 445.5,90.9 445.5,273.3 246.3,275.1 245.7,178.1 229.7,177 	"/>
</g>
<g id="Слой_2">
</g>
</svg>
