<?xml version="1.0" encoding="utf-8"?>
<!-- Generator: Adobe Illustrator 19.0.1, SVG Export Plug-In . SVG Version: 6.00 Build 0)  -->
<svg version="1.1" xmlns="http://www.w3.org/2000/svg" xmlns:xlink="http://www.w3.org/1999/xlink" x="0px" y="0px"
	 viewBox="0 0 1205.8 451.3" style="enable-background:new 0 0 1205.8 451.3;" xml:space="preserve">
<style type="text/css">
	.st0 {fill:none;}
	.plan { fill:red; opacity:0; cursor:pointer; }
	<!--.test1{fill:red;}-->
    .plan1_9_1:hover {
      opacity: .4;
    }
	<!--.test2{fill:white;}-->
    .plan1_9_2:hover, 
    .plan1_9_3:hover, 
    .plan1_9_4:hover, 
    .plan1_9_5:hover, 
    .plan1_9_6:hover, 
    .plan1_9_7:hover, 
    .plan1_9_8:hover, 
    .plan1_9_9:hover, 
    .plan1_9_10:hover {
      opacity: .4;
    }
</style>
<g id="Layer_1">
	<polygon class="st0 plan plan1_9_1" points="1190.6,220.6 1026.6,220.6 1020.6,220.6 1020.6,220.6 1020.6,275.1 1020.6,275.1 1026.6,275.1 
		1064.1,275.1 1064.1,326.2 1063.6,326.2 1020.9,326.2 1020.9,330.7 1020.9,437.1 1020.9,438.2 1020.9,451.2 1202.4,451.2 
		1202.4,451.2 1202.4,437.1 1202.4,402.4 1205.8,402.4 1205.8,220.6 	"/>
	<polygon class="st0 plan plan1_9_2" points="856.6,254.1 850.5,254.1 667.4,254.1 661.1,254.1 661.1,260.3 661.1,451.2 667.4,451.2 723.1,451.2 
		779,451.2 850.5,451.2 856.9,451.2 856.9,254.1 	"/>
	<polygon class="st0 plan plan1_9_3" points="340.1,253.7 340.1,258.9 340.1,437.1 340.1,449.9 340.1,451.2 535.9,451.2 535.9,443.2 535.9,437.1 
		535.9,260.4 535.9,258.4 535.9,253.7 	"/>
	<polygon class="st0 plan plan1_9_4" points="595.3,0 339.4,0 339.4,1 339.4,14.2 339.4,80.1 339.4,131.5 339.4,192 339.4,193.3 339.4,198.4 
		595.3,198.4 600.3,198.4 600.8,198.4 600.8,14.2 600.8,0 	"/>
	<path class="st0 plan plan1_9_5" d="M345.3,80.1V1.4V0h-5.9h-77.2l0,0h-25.3l0,0h-42.6l0,0h-26l0,0h-34.6l0,0H90.3h-6.1h-2.6h-1.9H2.3l0,0H0v1.4
		v47.8v1.1V221v5.7h5.7h170.6V226h0v-27.6h169.1v-5.1h0.1L345.3,80.1L345.3,80.1z M262.3,1.5L262.3,1.5l11-0.1L262.3,1.5z"/>
	<polygon class="st0 plan plan1_9_6" points="600.9,0 595.4,0 595.4,14.2 595.4,191.9 595.3,191.9 595.3,198.2 855.8,198.2 855.8,194.3 
		855.8,191.9 855.8,14.2 855.8,0.7 855.8,0 	"/>
	<path class="st0 plan plan1_9_7" d="M176.1,437.1V324.8h0h-6.7h-42.3v-49.7h37.5h5.9h0.1V221h-0.1h-5.9H2.8H0v5.7v210.4v14.2v0h2.8v0h173.4v-14.2
		H176.1z"/>
	<path class="st0 plan plan1_9_8" d="M1202.4,129.9V2.8h0.1V0h-80.3h-1.7h-5.2h-42h-42.8l0,0h-25.7l0,0h-50.7H848.9v1.1v13v184.1h7.9h163.5v22.3v2
		v4.5h170.3h3h12.2v-97.2H1202.4z"/>
	<polygon class="st0 plan plan1_9_9" points="170.6,253.7 170.6,253.7 164.6,253.7 164.6,268.4 121.9,268.4 121.9,275.1 121.9,324.8 121.9,327.4 
		127.1,327.4 169.4,327.4 169.4,437.1 169.4,439.2 169.4,451.2 262,451.2 346.6,451.2 346.8,451.2 346.8,260.4 346.8,258.9 
		346.8,253.7 	"/>
	<path class="st0 plan plan1_9_10" d="M1026.6,268.4v-14.3h-0.3h-5.7h-164h-6.3v6.8v187.5v2.8H1021h5.1h0.1V330.7h43.1v0v-4.5v-51.2v-4.3v-2.3
		H1026.6z"/>
</g>
<g id="Слой_2">
</g>
</svg>
