<?xml version="1.0" encoding="utf-8"?>
<!-- Generator: Adobe Illustrator 19.0.1, SVG Export Plug-In . SVG Version: 6.00 Build 0)  -->
<svg version="1.1" xmlns="http://www.w3.org/2000/svg" xmlns:xlink="http://www.w3.org/1999/xlink" x="0px" y="0px"
	 viewBox="0 0 1205.9 451.3" style="enable-background:new 0 0 1205.9 451.3;" xml:space="preserve">
<style type="text/css">
	.st0 {fill:none;}
	.plan { fill:red; opacity:0; cursor:pointer; }
	<!--.test1{fill:red;}-->
    .plan1_t_1:hover {
      opacity: .4;
    }
	<!--.test2{fill:white;}-->
    .plan1_t_2:hover, 
    .plan1_t_3:hover, 
    .plan1_t_4:hover, 
    .plan1_t_5:hover, 
    .plan1_t_6:hover, 
    .plan1_t_7:hover, 
    .plan1_t_8:hover, 
    .plan1_t_9:hover, 
    .plan1_t_10:hover, 
    .plan1_t_11:hover,
    .plan1_t_12:hover {
      opacity: .4;
    }
</style>
<g id="Layer_1">
	<path class="st0 plan plan1_t_1" d="M90.3,0h-6.1h-4.5v5.1H2.9v0H2.8H0.2H0v44.2v2.8V221v5.7h5.7h170.6v-0.9h0v-28.2h34h5.6h0v-65.4h42.4v-5.7
		V14.2V8.8V0H90.3z"/>
	<path class="st0 plan plan1_t_2" d="M430.7,54.8V8.7V6.5V5.8h-79.8V0h-11.3h-12h-22.6h-52.3v8.8v5.3v112.4H213h-2.8h-0.1v65.4v2.4v3.3h217.2h6
		v-5.7V65.6V54.8H430.7z"/>
	<polygon class="st0 plan plan1_t_3" points="600.1,0 595.3,0 505.6,0 505.6,5.8 433.4,5.8 427.4,5.8 427.4,192 427.4,198.4 595.3,198.4 
		600.8,198.4 600.8,192 600.8,0 	"/>
	<polygon class="st0 plan plan1_t_4" points="691.7,5.8 691.7,0 600.8,0 595.3,0 595.3,14.2 595.3,192.8 595.3,198.4 600.8,198.4 774.1,198.4 
		774.1,192.8 774.1,8.7 774.1,7.1 774.1,5.8 	"/>
	<polygon class="st0 plan plan1_t_5" points="983.8,126.1 947.8,126.1 947.8,12.2 947.8,0 845.4,0 845.4,5.8 774.1,5.8 769.2,5.8 767.8,5.8 
		767.8,192 767.8,198.4 767.8,198.4 987.3,198.4 987.3,198.2 987.3,192 987.3,133.4 987.3,126.1 	"/>
	<polygon class="st0 plan plan1_t_6" points="1200.1,45.8 1200.1,8.7 1200.1,7.1 1200.1,5.9 1122.2,5.9 1122.2,0 1117.1,0 1073.2,0 940.4,0 
		940.4,12.2 940.4,14.2 940.4,133.4 946.8,133.4 947.8,133.4 983.8,133.4 983.8,136.1 983.8,198.2 987.3,198.2 1020.3,198.2 
		1020.3,222.6 1020.3,227.1 1190.6,227.1 1193.6,227.1 1205.8,227.1 1205.8,56.3 1205.9,56.3 1205.9,45.8 	"/>
	<path class="st0 plan plan1_t_7" d="M1193.6,220.6h-3h-164.3h-6h0v6.5h0v41.3h0v6.7h43.3c0.1,3.8,0.3,11.3,0.5,19.4v31.7h-38h-5.2h-0.1v4.5h0.1
		v106.3v1.2v13h66.3h35v-4h78v-0.3h0.1v-44.5h5.5V220.6H1193.6z M1196.6,408.3l-0.1-5.9h0.1V408.3z"/>
	<polygon class="st0 plan plan1_t_8" points="975.9,268.4 975.9,260.9 975.9,254.2 975.9,254.1 850.3,254.1 850.3,258.9 850.3,260.9 850.3,389.9 
		851.4,389.9 851.4,446.1 851.4,446.1 851.4,447.2 932.7,447.2 932.7,451.2 1020.9,451.2 1026.1,451.2 1026.1,437.1 1026.1,330.7 
		1066.1,330.7 1066.1,330.7 1069.3,330.7 1069.3,275.1 1069.3,270.7 1069.3,268.4 	"/>
	<polygon class="st0 plan plan1_t_9" points="661.1,254.1 661.1,257.1 661.1,260.9 661.1,437.1 661.1,439.5 661.1,451.2 779.2,451.2 779.2,447.2 
		855.4,447.2 855.4,444.4 855.4,444.4 855.4,389.9 856.6,389.9 856.6,260.9 857.1,260.9 857.1,254.1 	"/>
	<path class="st0 plan plan1_t_10" d="M535.9,437.1V258.4v-4.7H340.1v5.2v1.4v127.9h1.8v56.2h-0.1v2.8h81.3v4h33.5h17.3H536L535.9,437.1L535.9,437.1
		z M344.9,388.2l-0.1,42.7L344.9,388.2L344.9,388.2z"/>
	<path class="st0 plan plan1_t_11" d="M176.3,221h-5.7H2.8H0v5.7v220.6h0.9h0.6l0,0.5l58.5-0.5h19.4v4h66.6h18.3H176v-12h0.1V330.7v-4.8v-1.1h-47.9
		v-50.5h48v-2.5v-3.5L176.3,221L176.3,221z"/>
	<polygon class="st0 plan plan1_t_12" points="212.8,253.7 207.2,253.7 207.2,260.4 207.2,268.2 128.2,268.2 124.6,268.2 122.5,268.2 122.5,330.7 
		124.6,330.7 169.4,330.7 169.4,437.1 169.4,451.2 265.2,451.2 265.2,447.2 344.8,447.2 344.8,445.9 344.8,444.4 344.8,388.2 
		346.6,388.2 346.6,258.9 346.6,253.7 	"/>
</g>
<g id="Слой_2">
</g>
</svg>
