<?xml version="1.0" encoding="utf-8"?>
<!-- Generator: Adobe Illustrator 19.0.1, SVG Export Plug-In . SVG Version: 6.00 Build 0)  -->
<svg version="1.1" xmlns="http://www.w3.org/2000/svg" xmlns:xlink="http://www.w3.org/1999/xlink" x="0px" y="0px"
	 viewBox="0 0 798.7 858.6" style="enable-background:new 0 0 798.7 858.6;" xml:space="preserve">
<style type="text/css">
	.st0 {fill:none;}
	.plan { fill:red; opacity:0; cursor:pointer; }
	<!--.test1{fill:red;}-->
    .plan3_9_1:hover {
      opacity: .4;
    }
	<!--.test2{fill:white;}-->
    .plan3_9_2:hover, 
    .plan3_9_3:hover, 
    .plan3_9_4:hover, 
    .plan3_9_5:hover, 
    .plan3_9_6:hover, 
    .plan3_9_8:hover, 
    .plan3_9_9:hover, 
    .plan3_9_10:hover {
      opacity: .4;
    }
</style>
<g id="Layer_1">
	<polygon class="st0 plan plan3_9_10" points="195.8,730.8 195.8,676.2 0,676.2 0,858.4 55.3,858.4 195.8,858.4 251.2,858.4 251.2,730.8 	"/>
	<rect x="246.3" y="585.4" class="st0 plan plan3_9_9" width="201" height="273.2"/>
	<polygon class="st0 plan plan3_9_8" points="246.2,386.5 246.3,591.5 446.6,591.5 447.3,530 453,528.1 407.8,346.5 	"/>
	<polygon class="st0 plan plan3_9_6" points="447.7,529.5 798,441.6 798,264.6 729.8,264.6 729.7,293.5 624.8,293.5 402.1,348.9 	"/>
	<polygon class="st0 plan plan3_9_5" points="644.2,230 644.2,299.1 736.2,299.1 736.3,270.3 798.2,269.7 798.7,0 744.9,0.1 670.4,19.3 
		702.6,149.9 651.5,163 665,217.5 644.2,224.4 	"/>
	<polygon class="st0 plan plan3_9_4" points="419.2,79.3 466.7,273.3 670.4,222.7 657.3,169.2 710,154.9 676.1,16.5 	"/>
	<polygon class="st0 plan plan3_9_3" points="257.9,119.4 278.7,201.2 244.4,211.4 260.2,268.3 325.7,252.7 338.6,305.2 473.7,271.6 426.4,77.6 	
		"/>
	<polygon class="st0 plan plan3_9_2" points="263.3,118.8 87.3,162.5 135,356.2 343.3,302.6 329.9,245.4 262.6,262.1 252.4,215.8 285.6,207.6 	"/>
</g>
<g id="Слой_2">
	<polygon class="st0 plan plan3_9_1" points="0.2,184.2 93.8,160.9 140.7,354.7 190,342.1 189.3,550.2 0,550.2 	"/>
</g>
</svg>
