<?xml version="1.0" encoding="utf-8"?>
<!-- Generator: Adobe Illustrator 19.0.1, SVG Export Plug-In . SVG Version: 6.00 Build 0)  -->
<svg version="1.1" id="Слой_1" xmlns="http://www.w3.org/2000/svg" xmlns:xlink="http://www.w3.org/1999/xlink" x="0px" y="0px"
	 viewBox="297 171.7 1205.9 451.3" style="enable-background:new 297 171.7 1205.9 451.3;" xml:space="preserve">
<style type="text/css">
	.st0{fill:none;}
</style>
<polygon class="st0" points="424.9,348.8 424.9,298.2 472.5,298.2 472.5,171.7 376.3,171.7 376.3,175.8 297,175.8 297,402 
	345.5,402 424.9,402 473.5,402 473.5,348.8 "/>
<polygon class="st0" points="562.2,175.8 562.2,171.7 466.8,171.7 466.8,292 419.7,292 419.7,354.8 466.8,354.8 466.8,369.3 
	504.3,369.3 562.2,369.3 642.6,369.3 642.6,175.8 "/>
<polygon class="st0" points="719.6,171.7 719.6,177.6 641.8,177.1 642.1,366 719.6,366.1 719.6,368.8 832.9,368.8 832.9,171.7 "/>
<polygon class="st0" points="1076,175.8 1076,171.8 958.2,171.8 958.2,368.8 1034.6,368.8 1076,368.8 1152.4,368.8 1152.4,175.8 "/>
<polygon class="st0" points="1322.5,292.1 1322.5,171.7 1229.8,171.7 1229.8,177 1148.4,177 1148.4,368.8 1272.9,368.8 
	1272.9,354.6 1274,354.6 1322.5,354.6 1366.7,354.6 1366.7,292.1 "/>
<polygon class="st0" points="1497.5,220.2 1497.5,175.8 1419.2,175.8 1419.2,172.5 1317.9,172.5 1317.9,298.3 1361.1,298.3 
	1361.1,346.1 1316.9,346.1 1316.9,401.8 1361.1,401.8 1401.6,401.8 1418.2,401.8 1462.4,401.8 1502.9,401.8 1502.9,220.2 "/>
<polygon class="st0" points="1497.1,396 1317.3,396 1317.3,425.1 1279,425.1 1279,490 1237.4,490 1237.4,623 1419.2,623 
	1419.2,617.1 1497.1,617.1 "/>
<polygon class="st0" points="1283.5,424.7 1243.6,424.7 1104.3,424.7 1064.3,424.7 1064.3,617.2 1243.6,617.2 1243.6,497 
	1283.5,497 "/>
<polygon class="st0" points="1071.1,425.1 891.9,425.1 891.9,430.7 891.9,617.2 891.9,622.8 988.7,622.8 988.7,617.2 1071.1,617.2 
	"/>
<polygon class="st0" points="725.3,425 725.3,616.8 802.6,616.8 802.6,623.4 897.8,623.4 897.8,616.8 897.8,431.6 897.8,425 "/>
<polygon class="st0" points="507.2,425.4 507.2,495 550,495 550,618 550,622.5 647.4,622.5 647.4,618 730.4,618 730.4,495 
	730.4,461.6 730.4,425.4 "/>
<polygon class="st0" points="512.9,490.8 512.9,427.2 473.5,427.2 473.5,396.7 297,396.7 297,427.2 297,490.8 297,523.8 297,554.4 
	297,618 555.2,618 555.2,490.8 "/>
</svg>
