<?xml version="1.0" encoding="utf-8"?>
<!-- Generator: Adobe Illustrator 19.0.1, SVG Export Plug-In . SVG Version: 6.00 Build 0)  -->
<svg version="1.1" xmlns="http://www.w3.org/2000/svg" xmlns:xlink="http://www.w3.org/1999/xlink" x="0px" y="0px"
	 viewBox="0 0 1205.8 451.3" style="enable-background:new 0 0 1205.8 451.3;" xml:space="preserve">
<style type="text/css">
	.st0 {fill:none;}
	.plan { fill:red; opacity:0; cursor:pointer; }
	<!--.test1{fill:red;}-->
    .plan4_10_1:hover {
      opacity: .4;
    }
	<!--.test2{fill:white;}-->
    .plan4_10_2:hover, 
    .plan4_10_3:hover, 
    .plan4_10_4:hover, 
    .plan4_10_5:hover, 
    .plan4_10_6:hover, 
    .plan4_10_7:hover, 
    .plan4_10_8:hover, 
    .plan4_10_9:hover, 
    .plan4_10_10:hover {
      opacity: .4;
    }
</style>
<g id="Layer_1">
	<polygon class="st0 plan plan4_10_1" points="171.5,126.6 171.5,0.1 0,0.1 0,103.8 0,126.6 0,230.3 44.1,230.3 126.7,230.3 170.8,230.3 
		170.8,176.3 126.7,176.3 126.7,126.6 	"/>
	<polygon class="st0 plan plan4_10_1" points="169.4,0.3 169.4,120.6 121.9,120.6 121.9,182.9 169.4,182.9 169.4,197.6 346.6,197.6 346.6,0.3 	"/>
	<rect x="340.1" class="st0 plan plan4_10_1" width="195.8" height="197.6"/>
	<rect x="661.1" y="0.1" class="st0 plan plan4_10_1" width="195.5" height="197.2"/>
	<polygon class="st0 plan plan4_10_1" points="1068.8,120.6 1026.8,120.6 1026.8,0.1 850.3,0.1 850.3,197.7 1026.8,197.7 1026.8,182.8 1068.8,182.8 
			"/>
	<polygon class="st0 plan plan4_10_1" points="1202.4,48.9 1202.4,0 1020.9,0 1020.9,125.1 1064.1,125.1 1064.1,176.3 1020.3,176.3 1020.3,227 
		1064.1,227 1161.9,227 1205.8,227 1205.8,48.9 	"/>
	<polygon class="st0 plan plan4_10_1" points="1020.3,224.9 1020.3,253.1 849.2,253.1 849.2,451.3 1020.3,451.3 1031.3,451.3 1202.4,451.3 
		1202.4,224.9 	"/>
	<rect x="594.9" y="253" class="st0 plan plan4_10_1" width="261.8" height="198.4"/>
	<rect x="339.4" y="253" class="st0 plan plan4_10_1" width="261.3" height="198.4"/>
	<polygon class="st0 plan plan4_10_1" points="176.3,255.4 176.3,224.7 0,224.7 0,451.3 169.3,451.3 176.3,451.3 345.6,451.3 345.6,255.4 	"/>
</g>
<g id="Слой_2">
</g>
</svg>
