<?xml version="1.0" encoding="utf-8"?>
<!-- Generator: Adobe Illustrator 19.0.1, SVG Export Plug-In . SVG Version: 6.00 Build 0)  -->
<svg version="1.1" id="Слой_1" xmlns="http://www.w3.org/2000/svg" xmlns:xlink="http://www.w3.org/1999/xlink" x="0px" y="0px"
	 viewBox="202.1 -19.5 798.5 858.4" enable-background="new 202.1 -19.5 798.5 858.4" xml:space="preserve">
    <style type="text/css">
	.st0 {fill:none;}
	.plan { fill:red; opacity:0; cursor:pointer; }
	<!--.test1{fill:red;}-->
    .plan3_9_1:hover {
      opacity: .4;
    }
	<!--.test2{fill:white;}-->
    .plan3_9_2:hover, 
    .plan3_9_3:hover, 
    .plan3_9_4:hover, 
    .plan3_9_5:hover, 
    .plan3_9_6:hover, 
    .plan3_9_7:hover, 
    .plan3_9_8:hover, 
    .plan3_9_9:hover, 
    .plan3_9_10:hover {
      opacity: .4;
    }
</style>
<path class="st0 plan plan3_9_4" d="M621.7,61.4l46.9,192.4l204-52.1l-14.2-59.9l-29.5,9.4L795.2,17.4L621.7,61.4z"/>
<path class="st0 plan plan3_9_3" d="M459,100.1l20.5,83.3l-33.2,8.5l15.8,56.9l67.7-15.7l11.8,52.8l134-33.8L628.5,61.6l-74.9,20.2l-1.2-4.7
	L459,100.1z"/>
<path class="st0 plan plan3_9_2" d="M289,144l47.9,192.7L547,284.5l-14.9-57.6l-67.6,15.7l-10.4-47.4l33.4-7.1l-23.3-88.4L289,144z"/>
<path class="st0" d="M205.5,164.7l90.2-20.1l46.9,190.6l49.4-16.6l-0.8,212.1H202.3l-0.2-306.5h3.6L205.5,164.7z"/>
<path class="st0 plan plan3_9_1" d="M205.5,164.7l90.2-20.1l46.9,190.6l49.4-16.6l-0.8,212.1H202.3l-0.2-306.5h3.6L205.5,164.7z"/>
<path class="st0 plan plan3_9_10" d="M452,742.2v-39.7h-54.3v-45.8H204.5v182.2h54.2h139h53.4h0.9h193.9v-96.7H452z"/>
<path class="st0 plan plan3_9_9" d="M447,566.5h199.6v186.2H447V566.5z M448.2,565.9h199.2v186.8H448.2V565.9z"/>
<path class="st0 plan plan3_9_8" d="M447.8,366.3l0.4,205.7l194.9,0.2l2.8-61.3l8.2-2.2l-45.3-181.9L447.8,366.3z"/>
<path class="st0 plan plan3_9_7" d="M650,510l171.9-42.1l-46.4-182.7l-171.6,41.6L650,510z"/>
<path class="st0 plan plan3_9_6" d="M814.1,469.8l-45.3-180.3l98.7-27.3l0.3-17.1h132.1v177L814.1,469.8z"/>
<path class="st0 plan plan3_9_5" d="M1000.6-19.5l-0.6,270.7H873.3l-0.7-47.7l-17-53.9l-32,8.8L789.4,18.8l154.9-37.6L1000.6-19.5z"/>
</svg>
