<?xml version="1.0" encoding="utf-8"?>
<!-- Generator: Adobe Illustrator 20.0.0, SVG Export Plug-In . SVG Version: 6.00 Build 0)  -->
<svg version="1.1">
<path d="M424.6,87.5l46.9,192.4l204-52.1l-14.2-59.9l-29.5,9.4L598.1,43.5L424.6,87.5z"/>
<path d="M261.9,126.2l20.5,83.3l-33.2,8.5l15.8,56.9l67.7-15.7l11.8,52.8l134-33.8L431.4,87.7l-74.9,20.2l-1.2-4.7L261.9,126.2z"/>
<path d="M91.9,170.1l47.9,192.7l210.1-52.2L335,253l-67.6,15.7L257,221.3l33.4-7.1l-23.3-88.4L91.9,170.1z"/>
<path d="M13.2,251.8c0,0,0.2-57.5,0-57.5s69.2-5.2,69.2-5.2l55,178l52.5-10.5v194.2L8.4,552.5V254.2L13.2,251.8z"/>
<path d="M260.2,576.2h199.6v186.2H260.2V576.2z"/>
<path d="M250.7,392.4l0.4,205.7l194.9,0.2l2.8-61.3l8.2-2.2l-45.3-181.9L250.7,392.4z"/>
<path d="M452.9,536.1L624.8,494l-46.4-182.7l-171.6,41.6L452.9,536.1z"/>
<path d="M617,495.9l-45.3-180.3l98.7-27.3l0.3-17.1h132.1v177L617,495.9z"/>
<path d="M803.5,6.6l-0.6,270.7H676.2l-0.7-47.7l-17-53.9l-32,8.8L592.3,44.9L747.2,7.3L803.5,6.6z"/>
<path d="M189.9,687l4,47.3l22,2.7l34.8,36.9h192.5l-2.7,86.4h-428V687H189.9z"/>
</svg>
