<?xml version="1.0" encoding="utf-8"?>
<!-- Generator: Adobe Illustrator 19.0.1, SVG Export Plug-In . SVG Version: 6.00 Build 0)  -->
<svg version="1.1" xmlns="http://www.w3.org/2000/svg" xmlns:xlink="http://www.w3.org/1999/xlink" x="0px" y="0px"
	 viewBox="0 0 798.7 858.6" style="enable-background:new 0 0 798.7 858.6;" xml:space="preserve">
<style type="text/css">
	.st0 {fill:none;}
	.plan { fill:red; opacity:0; cursor:pointer; }
	<!--.test1{fill:red;}-->
    .plan2_9_1:hover {
      opacity: .4;
    }
	<!--.test2{fill:white;}-->
    .plan2_9_2:hover, 
    .plan2_9_3:hover, 
    .plan2_9_4:hover, 
    .plan2_9_5:hover, 
    .plan2_9_6:hover, 
    .plan2_9_7:hover, 
    .plan2_9_8:hover, 
    .plan2_9_9:hover {
      opacity: .4;
    }
</style>
<g id="Layer_1">
	<polygon class="st0 plan plan2_9_1" points="250.6,0.1 175.2,0.1 175.2,0.1 -0.1,0.2 0.1,182.6 195.6,182.4 195.5,127.6 250.6,127.6 	"/>
	<polygon class="st0 plan plan2_9_2" points="190.1,477.2 189.9,308.4 0.1,308.6 0.3,481.3 0.2,674.5 92.3,697.3 139.2,510.3 190.1,522.8 
		190.1,477.2 	"/>
	<polygon class="st0 plan plan2_9_3" points="135,502.4 87.3,692.7 262.8,740.5 285,651.3 252.6,643.5 262.6,596.5 330.7,613.3 344.7,554.7 	"/>
	<polygon class="st0 plan plan2_9_4" points="339.1,553.3 326,605.4 259.4,588.8 244.4,647.2 277.7,656.5 256.6,738.2 426.3,780.3 473.7,586 	"/>
	<polygon class="st0 plan plan2_9_5" points="419.6,775.9 678.7,843.9 710,703.8 658.2,691.5 670.3,635.5 468.7,585.3 	"/>
	<polygon class="st0 plan plan2_9_6" points="644.2,559.5 736.2,559.5 736.3,588.4 798,588.4 798.7,858.6 744.9,858.5 670.4,841.4 703.1,708.8 
		650.9,695.6 665,640.2 644.2,632.3 	"/>
	<polygon class="st0 plan plan2_9_7" points="729.8,593.7 798.2,593.7 798,417 447.3,329.7 403.6,510.3 624.8,565.1 729.8,565.2 	"/>
	<polygon class="st0 plan plan2_9_8" points="447.3,266.9 246.3,267.1 246.2,472.1 406.3,511 452.2,332.4 447.1,331.1 	"/>
	<polygon class="st0 plan plan2_9_9" points="244.9,0 246.3,273.2 367.2,272.6 367.2,278 447.2,277.9 447.3,0 	"/>
</g>
<g id="Слой_2">
</g>
</svg>
