<?xml version="1.0" encoding="utf-8"?>
<!-- Generator: Adobe Illustrator 19.0.1, SVG Export Plug-In . SVG Version: 6.00 Build 0)  -->
<svg version="1.1" xmlns="http://www.w3.org/2000/svg" xmlns:xlink="http://www.w3.org/1999/xlink" x="0px" y="0px"
	 viewBox="0 0 1205.9 451.3" style="enable-background:new 0 0 1205.9 451.3;" xml:space="preserve">
<style type="text/css">
	.st0 {fill:none;}
	.plan { fill:red; opacity:0; cursor:pointer; }
	<!--.test1{fill:red;}-->
    .plan1_9_1:hover {
      opacity: .4;
    }
	<!--.test2{fill:white;}-->
    .plan1_9_2:hover, 
    .plan1_9_3:hover, 
    .plan1_9_4:hover, 
    .plan1_9_5:hover, 
    .plan1_9_6:hover, 
    .plan1_9_7:hover, 
    .plan1_9_8:hover, 
    .plan1_9_9:hover, 
    .plan1_9_10:hover, 
    .plan1_9_11:hover,
    .plan1_9_12:hover {
      opacity: .4;
    }
</style>
<g id="Layer_1">
	<path class="st0 plan plan1_9_3" d="M595.3,0h-32.7h-56.9v1.4v4.4h-81v0.7h-0.2v48.3v2.1v8.7h3.1v126.3v3.3v3l173.3,0v-3.7v-1.9V1.4V0H595.3z"/>
	<path class="st0 plan plan1_9_4" d="M691.7,5.8V1.4V0h-56.9h-34h-5.5v1.4v190.5v2.7v3.7h98.4v0h80.4V57.6v-2.8V8.7V7.1V5.8H691.7z"/>
	<polygon class="st0 plan plan1_9_12" points="1190.6,220.6 1190.6,220.7 1026.6,220.7 1020.6,220.7 1020.6,220.7 1020.6,275.1 1020.6,275.1 
		1026.6,275.1 1064.1,275.1 1064.1,324.9 1026.1,324.9 1021.4,324.9 1020.9,324.9 1020.9,437.1 1020.9,438.2 1020.9,451.2 
		1045.3,451.2 1122.2,451.2 1122.2,447.2 1190.6,447.2 1200.2,447.2 1205.8,447.2 1205.8,220.6 	"/>
	<path class="st0 plan plan1_9_11" d="M1069.2,268.4h-5.1h-37.5v-7.5v-6.8h-6H850.3v4.8v2v127.2v1.8v8.8h1.2v45.7v1.7v1.2h81.3v4h93.4v-13v-1.2
		V327.9h38h5.1v-3L1069.2,268.4L1069.2,268.4z M968.7,437.1L968.7,437.1L968.7,437.1L968.7,437.1z"/>
	<polygon class="st0 plan plan1_9_10" points="661.1,254.1 661.1,257.1 661.1,260.3 661.1,437.1 661.1,439.5 661.1,451.2 723.1,451.2 755.7,451.2 
		779,451.2 779,447.4 779.2,447.4 779.2,447.3 855.4,447.3 855.4,446.1 855.4,444.4 855.4,398.7 856.6,398.7 856.6,389.9 
		856.6,388.1 856.6,260.3 856.6,258.9 856.6,254.1 	"/>
	<polygon class="st0 plan plan1_9_7" points="176.1,324.7 146.3,324.7 146.3,324.8 128.2,324.8 128.2,274.2 176.2,274.2 176.2,271.7 176.3,271.7 
		176.3,222.8 176.2,222.8 170.6,222.8 0,222.8 0,385.7 0,447.2 0.9,447.2 2.8,447.2 79.3,447.2 79.3,451.2 175.9,451.2 175.9,439.2 
		176,439.2 	"/>
	<polygon class="st0 plan plan1_9_1" points="211.4,134.1 210.2,134.1 90.3,134.1 90.3,55.8 90.3,54.2 90.3,0 79.8,0 79.8,5.1 2.8,5.1 0.2,5.1 
		0,5.1 0,52.1 0,52.1 0,226.7 3.4,226.7 5.7,226.7 176.3,226.7 176.3,225.8 176.3,225.8 176.3,197.6 213,197.6 213,194.4 213,194.4 
		213.3,170.4 215.9,170.4 215.9,134.1 	"/>
	<path class="st0 plan plan1_9_2" d="M430.9,54.8V8.7V7.2V5.8h-80V0h-44.2h-1.8h-42h-26h-42.6h-26h-44.5H90.3H79.8v14.2v41.6h4.9v84.9h5.7v-0.1
		h119.9v21.5v8.3v23.9h0v3.3h121.1v0.7h102.1v-0.7v-2.4v-3.3v0V65.6v-2.3v-8.4H430.9z"/>
	<line x1="767.2" y1="193.3" x2="773.7" y2="193.3"/>
	<polygon class="st0 plan plan1_9_5" points="1073.2,0 845.4,0 845.4,5.8 774.1,5.8 773.7,5.8 767.8,5.8 767.2,5.8 767.2,193.3 767.2,198.2 
		871.9,198.2 871.9,198.2 987.3,198.2 987.3,194.7 987.3,191.9 987.3,171.4 987.3,168.7 987.3,137.9 1116.4,137.9 1116.4,137.8 
		1117.1,137.8 1117.1,55.1 1122.1,55.1 1122.1,14.2 1122.1,12.9 1122.1,0 	"/>
	<polygon class="st0 plan plan1_9_6" points="1200.1,45.8 1200.1,8.7 1200.1,7.1 1200.1,5.9 1122.1,5.9 1122.1,0 1110.6,0 1110.6,14.2 1110.7,14.2 
		1110.7,131.9 987.3,131.9 983.4,131.9 981.6,131.9 981.6,191.9 981.6,194.7 981.6,198.2 1020.3,198.2 1020.3,220.6 1020.3,222.6 
		1020.3,227.1 1190.6,227.1 1193.6,227.1 1205.8,227.1 1205.8,56.3 1205.9,56.3 1205.9,45.8 	"/>
	<polygon class="st0 plan plan1_9_9" points="340.1,253.3 340.1,258.9 340.1,259.9 340.1,388.1 340.1,388.2 340.1,398.7 341.8,398.7 341.8,444.4 
		341.8,445.9 341.8,447.2 421.9,447.2 421.9,451.2 422.6,451.2 422.6,451.3 433.6,451.3 433.6,451.2 447.4,451.2 473.9,451.2 
		528.2,451.2 535.9,451.2 535.9,443.2 535.9,437.1 535.9,259.9 535.9,258.4 535.9,253.3 	"/>
	<path class="st0 plan plan1_9_8" d="M221.6,253.3h-11.9h-33.5h-1.8h-3.8v15h-42.4h-3.6h-2v62.5h2h3.6h19.5v2.7v1.8v0.8h21.7v101v2.2v10.6v1.4h30.1
		h30.3h18.8h16.5v-4h76.6h3v-2.8v-45.7h1.8v-10.5v-0.1V259.9v-1v-5.7H221.6z"/>
</g>
<g id="Слой_2">
</g>
</svg>
