<?xml version="1.0" encoding="utf-8"?>
<!-- Generator: Adobe Illustrator 19.0.1, SVG Export Plug-In . SVG Version: 6.00 Build 0)  -->
<svg version="1.1" xmlns="http://www.w3.org/2000/svg" xmlns:xlink="http://www.w3.org/1999/xlink" x="0px" y="0px"
	 viewBox="0 0 1205.9 451.3" style="enable-background:new 0 0 1205.9 451.3;" xml:space="preserve">
<style type="text/css">
    
    .st0 {fill:none;}
	.plan { fill:red; opacity:0; cursor:pointer; }
	<!--.test1{fill:red;}-->
    .plan1_1_1:hover {
      opacity: .4;
    }
	<!--.test2{fill:white;}-->
    .plan1_1_2:hover, 
    .plan1_1_3:hover, 
    .plan1_1_4:hover, 
    .plan1_1_5:hover, 
    .plan1_1_6:hover, 
    .plan1_1_7:hover, 
    .plan1_1_8:hover, 
    .plan1_1_9:hover, 
    .plan1_1_10:hover, 
    .plan1_1_11:hover {
      opacity: .4;
    }
</style>
<g id="Layer_1">
	<path class="st0 plan plan1_1_1" d="M252.6,0L252.6,0H126.5h-2.7H90.3h-6.1h-4.5v5.1H2.8H0.2H0v44.2v2.8v174.5h5.7v0.1h170.6v-0.9h0v-28.2h27.2
		l0,0h9.6v-5.7l0,0v-21.5h2.8v-38.2h42.3v-2.8h0.1V14.2V8.8V0H252.6z"/>
	<polygon class="st0 plan plan1_1_2" points="433.7,63.2 433.4,63.2 433.4,54.8 430.7,54.8 430.7,8.7 430.7,6.5 430.7,5.8 350.9,5.8 350.9,0 
		322.7,0 304.9,0 258.3,0 252.6,0 252.6,1.4 252.6,14.2 252.6,126.6 210.2,126.6 210.2,129.6 210.2,132.2 210.2,162.1 210.2,170.5 
		210.2,191.9 210.2,194.4 210.2,197.6 433.4,198.4 433.4,195.2 433.7,195.2 	"/>
	<polygon class="st0 plan plan1_1_3" points="595.3,0 562.5,0 520.4,0 505.6,0 505.6,5.8 430.5,5.8 430.5,5.8 424.5,5.8 424.5,5.8 424.5,8.7 
		424.5,54.8 424.5,65.2 424.5,65.6 427.4,65.6 427.4,192 427.4,195.2 427.4,198.4 600.8,198.4 600.8,194.6 600.8,192 600.8,7.7 
		600.8,6.3 600.8,0 	"/>
	<path class="st0 plan plan1_1_4" d="M987.3,191.9v-21.2v-2v-35.3v-4.7v-2.7h-39.5V14.2l0,0v-1.4l0,0v-0.5V1.4l0,0V0l0,0h-10.8H895h-24.1h-25.5v5.8
		H697.1l-14.2-0.1l0.1,186.2h0v6.3h213.9l0,0h99.3v-6.3H987.3z"/>
	<polygon class="st0 plan plan1_1_5" points="1200.1,45.8 1200.1,8.7 1200.1,7.1 1200.1,5.9 1122.2,5.9 1122.2,0 1086.3,0 1073.2,0 1024.4,0 
		1004.7,0 940.4,0 940.4,12.2 940.4,14.2 940.4,126.1 940.4,133.1 940.4,133.4 981.6,133.4 981.6,170.7 983.8,170.7 983.8,191.9 
		983.8,194.7 983.8,198.2 1020.3,198.2 1020.3,221.2 1020.3,222.6 1020.3,227.7 1205.9,227.7 1205.9,227.1 1205.9,221.2 
		1205.9,56.3 1205.9,53.3 1205.9,45.8 	"/>
	<polygon class="st0 plan plan1_1_10" points="1068.1,268.4 1064.1,268.4 975.9,268.4 975.9,260.9 975.9,254.2 975.9,254.1 850.3,254.1 850.3,260.9 
		850.3,260.9 850.3,388.1 850.3,388.1 850.3,398.7 851.4,398.7 851.4,444.4 851.4,446.1 851.4,447.2 932.7,447.2 932.7,451.2 
		1001.7,451.2 1026.1,451.2 1026.1,437.1 1026.1,437.1 1026.1,327.9 1048.1,327.9 1048.1,330.7 1069.3,330.7 1069.3,330.7 
		1069.3,326.2 1069.3,268.4 	"/>
	<polygon class="st0 plan plan1_1_11" points="1193.6,220.6 1193.6,220.6 1020.3,220.6 1020.3,223.4 1020.3,227.1 1020.3,268.4 1020.3,270.4 
		1020.3,275.1 1064.1,275.1 1064.1,325.1 1020.9,325.1 1020.9,328.1 1021,328.1 1021,451.2 1022,451.2 1024.4,451.2 1026.1,451.2 
		1028.5,451.2 1045.3,451.2 1105.2,451.2 1122.2,451.2 1122.2,447.2 1200.2,447.2 1200.2,446.9 1200.3,446.9 1200.3,403.1 
		1205.9,403.1 1205.9,220.6 	"/>
	<polygon class="st0 plan plan1_1_9" points="763,254.1 661.1,254.1 661.1,257.1 661.1,260.3 661.1,437.1 661.1,439.5 661.1,451.2 723.1,451.2 
		779,451.2 779,447.4 779.2,447.4 779.2,447.2 855.4,447.2 855.4,446.1 855.4,444.4 855.4,398.7 856.6,398.7 856.6,389.9 
		856.6,388.1 856.6,260.9 856.6,258.9 856.6,254.1 	"/>
	<polygon class="st0 plan plan1_1_6" points="170.6,219.9 6.6,219.9 0,219.9 0,226.5 0,385.7 0,388.9 0,447.2 0.9,447.2 2.8,447.2 79.3,447.2 
		79.3,451.2 90.7,451.2 169.5,451.2 169.5,439.2 176.1,439.2 176.1,327.4 176.3,327.4 176.3,324.8 148.1,324.8 146.3,324.8 
		128.2,324.8 128.2,274.2 176.3,274.2 176.3,271.7 176.3,268.2 176.3,226.5 176.3,219.9 	"/>
	<path class="st0 plan plan1_1_7" d="M207.2,253.7v6.6v7.9h-79h-5.7h-1.8v6h1.8v56.5h2h3.6h19.9v-3.3h21.4v109.7l0,0v14.2h60.3h17.7h17.7v-4h76.7
		h2.8v-2.8v-45.7h1.8v-10.6V260.4V257v-3.3H207.2z"/>
	<path class="st0 plan plan1_1_8" d="M340.1,253.7v5.2v1.4v127.8v0.1v10.5h1.7v45.7v1.5v1.3h80.8v4v0.1h11v-0.1h102.3v-8v-6.1V260.4v-1.9v-4.7
		H340.1z"/>
</g>
<g id="Слой_2">
</g>
</svg>
