<?xml version="1.0" encoding="utf-8"?>
<!-- Generator: Adobe Illustrator 19.0.1, SVG Export Plug-In . SVG Version: 6.00 Build 0)  -->
<svg version="1.1" id="Слой_1" xmlns="http://www.w3.org/2000/svg" xmlns:xlink="http://www.w3.org/1999/xlink" x="0px" y="0px"
	 viewBox="297 171.7 1205.9 451.3" style="enable-background:new 297 171.7 1205.9 451.3;" xml:space="preserve">
<style type="text/css">
	.st0 {fill:none;}
	.plan { fill:red; opacity:0; cursor:pointer; }
	.plan4_9_1:hover {
      opacity: .4;
    }
	<!--.test2{fill:white;}-->
    .plan4_9_2:hover,
    .plan4_9_3:hover,
    .plan4_9_4:hover,
    .plan4_9_5:hover,
    .plan4_9_6:hover,
    .plan4_9_7:hover,
    .plan4_9_8:hover,
    .plan4_9_9:hover,
    .plan4_9_10:hover,
	.plan4_9_11:hover,
	.plan4_9_12:hover {
      opacity: .4;
    }
</style>
<polygon class="st0 plan plan4_9_1" points="376.3,171.7 376.3,175.8 297,175.8 297,402 376.3,402 411.9,402 472.9,402 472.9,171.7 "/>
<polygon class="st0 plan plan4_9_2" points="562.2,175.8 562.2,171.7 466.4,171.7 466.4,292.3 419.7,292.3 419.7,354.2 466.4,354.2 466.4,369.3 
	545.1,369.3 562.2,369.3 640.9,369.3 640.9,175.8 "/>
<polygon class="st0 plan plan4_9_3" points="719.6,171.7 719.6,175.2 638.7,175.2 638.7,369 719.6,369 755.2,369 832.9,369 832.9,171.7 "/>
<polygon class="st0" points="719.6,171.7 719.6,175.2 638.7,175.2 638.7,369 719.6,369 755.2,369 832.9,369 832.9,171.7 "/>
<polygon class="st0 plan plan4_9_4" points="1076,175.8 1076,171.7 958.1,171.7 958.1,369 1034.5,369 1076,369 1152.4,369 1152.4,175.8 "/>
<polygon class="st0 plan plan4_9_5" points="1229.7,171.8 1229.7,175.8 1148.4,175.8 1148.4,369.5 1229.7,369.5 1292.5,369.5 1323.6,369.5 
	1323.6,171.8 "/>
<polygon class="st0 plan plan4_9_6" points="1497.7,220.2 1497.7,175.8 1419.2,175.8 1419.2,171.8 1317.9,171.8 1317.9,296.8 1361.1,296.8 
	1361.1,348 1317.9,348 1317.9,402 1361.1,402 1459.6,402 1502.8,402 1502.8,220.2 "/>
<polygon class="st0 plan plan4_9_7" points="1407.4,395.7 1407.4,396 1317.2,396 1317.2,425 1279,425 1279,491.1 1317.2,491.1 1407.4,491.1 
	1407.4,616.2 1502.9,616.2 1502.9,395.7 "/>
<polygon class="st0 plan plan4_9_8" points="1284.2,485.2 1284.2,431 1284.2,424.8 1064.2,424.8 1064.2,616.8 1142.4,616.8 1142.4,623 1271.7,623 
	1284.2,623 1413.6,623 1413.6,485.2 "/>
<polygon class="st0 plan plan4_9_9" points="1071.1,425.7 891.9,425.7 891.9,428.8 891.9,619.5 891.9,622.7 988.7,622.7 988.7,619.5 1071.1,619.5 
	"/>
<polygon class="st0 plan plan4_9_10" points="724.4,424.7 724.4,617.2 802.6,617.2 802.6,623 897.7,623 897.7,617.2 897.7,430.5 897.7,424.7 "/>
<polygon class="st0 plan plan4_9_11" points="730.4,425.4 507.2,425.4 507.2,482.8 381.7,482.8 381.7,623 647.9,623 647.9,616.5 730.4,616.5 "/>
<polygon class="st0 plan plan4_9_12" points="472.5,425.6 472.5,396.4 387.7,396.4 363.5,396.4 297,396.4 297,618 387.7,618 387.7,488.7 
	403.3,488.7 472.5,488.7 512.4,488.7 512.4,425.6 "/>
</svg>
