<?xml version="1.0" encoding="utf-8"?>
<!-- Generator: Adobe Illustrator 19.0.1, SVG Export Plug-In . SVG Version: 6.00 Build 0)  -->
<svg version="1.1" xmlns="http://www.w3.org/2000/svg" xmlns:xlink="http://www.w3.org/1999/xlink" x="0px" y="0px"
	 viewBox="0 0 798.7 858.7" style="enable-background:new 0 0 798.7 858.7;" xml:space="preserve">
<style type="text/css">
	.st0 {fill:none;}
	.plan { fill:red; opacity:0; cursor:pointer; }
	<!--.test1{fill:red;}-->
    .plan3_t_1:hover {
      opacity: .4;
    }
	<!--.test2{fill:white;}-->
    .plan3_t_2:hover, 
    .plan3_t_3:hover, 
    .plan3_t_4:hover, 
    .plan3_t_5:hover, 
    .plan3_t_6:hover, 
    .plan3_t_7:hover, 
    .plan3_t_8:hover, 
    .plan3_t_9:hover, 
    .plan3_t_10:hover {
      opacity: .4;
    }
</style>
<g id="Layer_1">
	<polygon class="st0 plan plan3_t_1" points="235.7,762.5 235.7,704.8 192.1,704.8 192.1,676.2 2.4,676.2 2.4,858.4 46,858.4 192.1,858.4 
		227.5,858.4 235.7,858.4 444.8,858.4 444.8,762.5 	"/>
	<polygon class="st0 plan plan3_t_1" points="246.3,585.4 246.3,681.6 229.7,681.6 229.7,767.3 246.3,767.3 246.3,767.8 444.7,767.8 444.7,585.4 	
		"/>
	<polygon class="st0 plan plan3_t_1" points="245.9,385.8 246.3,591.5 445.9,591.2 445.9,530.4 452.2,528.3 406.8,346 	"/>
	<polygon class="st0 plan plan3_t_1" points="572.6,304.9 404.1,346.7 448.6,529.3 616.5,487.8 	"/>
	<polygon class="st0 plan plan3_t_1" points="667.1,264 797.4,266.6 798,441.6 612.2,489.3 567.2,306.2 667.3,282.1 	"/>
	<polygon class="st0 plan plan3_t_1" points="588.3,37.5 621.6,177.5 652.6,169.1 664.8,218.2 668.5,217.8 668.8,269.8 797.4,269.8 798.7,0 
		738.4,-0.3 	"/>
	<polygon class="st0 plan plan3_t_1" points="419.2,81.1 466.7,273.3 670.4,222.4 656.2,162.2 626.5,168.7 594.9,38.1 	"/>
	<polygon class="st0 plan plan3_t_1" points="258.2,120.3 277.7,203.2 244.4,211.4 258.9,270.4 327.9,252.6 340.5,305.4 473.7,271.6 426.6,81.1 
		351.1,100.3 350.5,96.6 	"/>
	<polygon class="st0 plan plan3_t_1" points="87.3,165.9 262.6,119.2 285.6,207.6 252.4,215.6 262.6,262.1 326.4,246.3 341.6,304.9 135,356.2 	"/>
</g>
<g id="Слой_2">
	<polygon class="st0 plan plan3_t_1" points="3.6,184.4 4.8,242.7 0.2,243.7 0.1,358.4 3.4,358.4 3.4,455.4 0.2,455.4 0.2,550.2 190,550.2 
		190,335.9 139.3,349 93.4,162.1 	"/>
</g>
</svg>
