<?xml version="1.0" encoding="utf-8"?>
<!-- Generator: Adobe Illustrator 19.0.1, SVG Export Plug-In . SVG Version: 6.00 Build 0)  -->
<svg version="1.1" xmlns="http://www.w3.org/2000/svg" xmlns:xlink="http://www.w3.org/1999/xlink" x="0px" y="0px"
	 viewBox="0 0 1312.2 581.9" style="enable-background:new 0 0 1312.2 581.9;" xml:space="preserve">
<style type="text/css">
	.st0{fill:#83D0F5;}
	.st1{fill:#FFFFFF;}
	.st2{fill:#FFFFFF;stroke:#0B0B0A;stroke-miterlimit:10;}
	.st3{fill:none;stroke:#0B0B0A;stroke-miterlimit:10;}
	.st4{font-family:'OpenSans';}
	.st5{font-size:12px;}
	.st6{font-size:23.7093px;}
</style>
<g id="Layer_1">
	<path class="st0" d="M65.2,307.8l169,0.5v-31h40.1v-62h39.9v-118c0,0-161.8,0.3-164.5,0c-2.1-0.2-6-7.7-6-7.7H64.1L65.2,307.8z"/>
	<rect x="68.7" y="130.9" class="st1" width="21.4" height="10.1"/>
	<path class="st2" d="M150.6,300.5h-2V289h2c1.7,0,3.1,1.4,3.1,3.1v5.2C153.8,299.1,152.4,300.5,150.6,300.5z"/>
	<path class="st2" d="M155.8,299.4l7.2,1c3.1,0,5.7-2.5,5.7-5.7l0,0c0-3.1-2.5-5.7-5.7-5.7l-7.2,1V299.4z"/>
	<rect x="145.5" y="276" width="2.8" height="33.4"/>
	<rect x="137.2" y="303" width="9.7" height="2.8"/>
	<rect x="298.1" y="84.6" width="21.4" height="14.2"/>
	<rect x="90.1" y="131.3" width="1.4" height="9.7"/>
	<path d="M316.9,86v-1.4h-61.4h-26h-41.8H185h-33.4h-6.1H141v5.1H64.1h-2.7h-0.2v44.2v2.8v174.6h5.7v0h170.6v-0.9h0v-35.1h-5.7v30.3
		h-38.1V276h-2.8v29.5H139v-6.8h7.8v-2.8H139v-10.7h7.8v-2.8H139v-3.5h31.3V276H139h-2.5h-0.3v29.5H66.9v-52.8h82.4v4.8h2.8v-22
		h-2.8v14.4H89.3V243v-0.7v-0.9H66.9v-99.9h1.7h1.9h20.9V140H70.6v-3.2h20.9v-1.4H70.6v-3.1h20.9v-1.4H70.6h-1.9h-4.6V92.5H141v38.4
		h-32v10.6h36.9V214h2.4h3.2H213v-2.8h-61.4v-70.8v-1.5V98.7H185h2.7h41.8h4.6v112.4v2.8h2.8h4.2v-2.8h-4.2V98.7h18.6h58.4v112.4
		h-19.7h-22.7h-9.5v2.9h9.5v0.2v2.6v29.9v8.4v21.5h-6.7v5.7h9.6v-5.7h0V255h2.8v-38.2h42.3V214h0.1V98.7h-2.7v-1.4h2.7v-3.9h-5.7
		v3.9h-58.4v-5.1h61.4v-1.4h-61.4V86H316.9z M69.6,243h10.9v6.9H69.6V243z M86.4,249.9h-3.1V243h3.1V249.9z M229.5,97.3h-41.8v-5.1
		h41.8V97.3z M229.5,90.8h-41.8V86h41.8V90.8z"/>
	<path class="st2" d="M71.8,207.1h8.9c2.6,0,4.7-2.1,4.7-4.7v-8.9c0-2.6-2.1-4.7-4.7-4.7h-8.9c-2.6,0-4.7,2.1-4.7,4.7v8.9
		C67.1,205,69.2,207.1,71.8,207.1z"/>
	<g>
		<circle class="st3" cx="72.4" cy="193.8" r="3.3"/>
		<circle class="st3" cx="72.4" cy="202" r="3.3"/>
		<circle class="st3" cx="80.2" cy="193.8" r="3.3"/>
		<circle class="st3" cx="80.2" cy="202" r="3.3"/>
	</g>
	<rect x="67.5" y="257.6" class="st2" width="21.8" height="48.1"/>
	<path class="st3" d="M82.6,302.9h-8.5c-2.3,0-4.1-1.8-4.1-4.1v-30.8c0-4.6,3.7-8.4,8.4-8.4l0,0c4.6,0,8.4,3.7,8.4,8.4v30.8
		C86.7,301.1,84.9,302.9,82.6,302.9z"/>
	<circle class="st3" cx="78.4" cy="296.9" r="2"/>
	<path class="st2" d="M104,292.7h-6c-3.3,0-6,2.7-6,6v6.9H110v-6.9C110,295.4,107.3,292.7,104,292.7z"/>
	<circle class="st3" cx="101" cy="299.8" r="2"/>
	<path class="st3" d="M103.5,294.7h-4.9c-2.5,0-4.6,2.1-4.6,4.6l0,0c0,2.5,2.1,4.6,4.6,4.6h4.9c2.5,0,4.6-2.1,4.6-4.6l0,0
		C108.1,296.8,106,294.7,103.5,294.7z"/>
	<circle class="st2" cx="281.2" cy="143.6" r="23.3"/>
	<text transform="matrix(1 0 0 1 265.9745 139.0478)" class="st4 st5">21,66</text>
	<text transform="matrix(1 0 0 1 265.9745 155.1308)" class="st4 st5">50,10</text>
	<line class="st3" x1="258" y1="142.8" x2="304.3" y2="142.8"/>
	<text transform="matrix(1 0 0 1 239.745 151.1655)" class="st4 st6">2</text>
	<text transform="matrix(1 0 0 1 268.308 206.4643)" class="st4 st5">10,48</text>
	<text transform="matrix(1 0 0 1 177.9745 206.4643)" class="st4 st5">11,18</text>
	<text transform="matrix(1 0 0 1 86.2387 115.7973)" class="st4 st5">3,46</text>
	<text transform="matrix(1 0 0 1 114.641 245.2973)" class="st4 st5">10,33</text>
	<text transform="matrix(1 0 0 1 232.641 253.1313)" class="st4 st5">10,32</text>
	<text transform="matrix(1 0 0 1 101.4052 283.4643)" class="st4 st5">4,77</text>
	<text transform="matrix(1 0 0 1 164.4052 289.6313)" class="st4 st5">1,29</text>
</g>
<g id="Слой_2">
</g>
</svg>
