<?xml version="1.0" encoding="utf-8"?>
<!-- Generator: Adobe Illustrator 19.0.1, SVG Export Plug-In . SVG Version: 6.00 Build 0)  -->
<svg version="1.1" xmlns="http://www.w3.org/2000/svg" xmlns:xlink="http://www.w3.org/1999/xlink" x="0px" y="0px"
	 viewBox="0 0 1205.9 451.3" style="enable-background:new 0 0 1205.9 451.3;" xml:space="preserve">
<style type="text/css">
	.st0 {fill:none;}
	.plan { fill:red; opacity:0; cursor:pointer; }
	<!--.test1{fill:red;}-->
    .plan4_t_1:hover {
      opacity: .4;
    }
	<!--.test2{fill:white;}-->
    .plan4_t_2:hover, 
    .plan4_t_3:hover, 
    .plan4_t_4:hover, 
    .plan4_t_5:hover, 
    .plan4_t_6:hover, 
    .plan4_t_7:hover, 
    .plan4_t_8:hover, 
    .plan4_t_9:hover, 
    .plan4_t_10:hover, 
    .plan4_t_11:hover,
    .plan4_t_12:hover {
      opacity: .4;
    }
</style>
<g id="Layer_1">
	<polygon class="st0 plan plan4_t_1" points="127.9,177.1 127.9,126.5 175.5,126.5 175.5,0 79.3,0 79.3,4.1 0,4.1 0,230.3 48.5,230.3 127.9,230.3 
		176.5,230.3 176.5,177.1 	"/>
	<polygon class="st0 plan plan4_t_1" points="265.2,4.1 265.2,0 169.8,0 169.8,120.3 122.7,120.3 122.7,183.1 169.8,183.1 169.8,197.6 207.3,197.6 
		265.2,197.6 345.6,197.6 345.6,4.1 	"/>
	<polygon class="st0 plan plan4_t_1" points="422.6,0 422.6,5.9 344.8,5.4 345.1,194.3 422.6,194.4 422.6,197.1 535.9,197.1 535.9,0 	"/>
	<polygon class="st0 plan plan4_t_1" points="779,4.1 779,0.1 661.2,0.1 661.2,197.1 737.6,197.1 779,197.1 855.4,197.1 855.4,4.1 	"/>
	<polygon class="st0 plan plan4_t_1" points="1025.5,120.4 1025.5,0 932.8,0 932.8,5.3 851.4,5.3 851.4,197.1 975.9,197.1 975.9,182.9 977,182.9 
		1025.5,182.9 1069.7,182.9 1069.7,120.4 	"/>
	<polygon class="st0 plan plan4_t_1" points="1200.5,48.5 1200.5,4.1 1122.2,4.1 1122.2,0.8 1020.9,0.8 1020.9,126.6 1064.1,126.6 1064.1,174.4 
		1019.9,174.4 1019.9,230.1 1064.1,230.1 1104.6,230.1 1121.2,230.1 1165.4,230.1 1205.9,230.1 1205.9,48.5 	"/>
	<polygon class="st0 plan plan4_t_1" points="1200.1,224.3 1020.3,224.3 1020.3,253.4 982,253.4 982,318.3 940.4,318.3 940.4,451.3 1122.2,451.3 
		1122.2,445.4 1200.1,445.4 	"/>
	<polygon class="st0 plan plan4_t_1" points="986.5,253 946.6,253 807.3,253 767.3,253 767.3,445.5 946.6,445.5 946.6,325.3 986.5,325.3 	"/>
	<polygon class="st0 plan plan4_t_1" points="774.1,253.4 594.9,253.4 594.9,259 594.9,445.5 594.9,451.1 691.7,451.1 691.7,445.5 774.1,445.5 	"/>
	<polygon class="st0 plan plan4_t_1" points="428.3,253.3 428.3,445.1 505.6,445.1 505.6,451.7 600.8,451.7 600.8,445.1 600.8,259.9 600.8,253.3 	
		"/>
	<polygon class="st0 plan plan4_t_1" points="210.2,253.7 210.2,323.3 253,323.3 253,446.3 253,450.8 350.4,450.8 350.4,446.3 433.4,446.3 
		433.4,323.3 433.4,289.9 433.4,253.7 	"/>
	<polygon class="st0 plan plan4_t_1" points="215.9,319.1 215.9,255.5 176.5,255.5 176.5,225 0,225 0,255.5 0,319.1 0,352.1 0,382.7 0,446.3 
		258.2,446.3 258.2,319.1 	"/>
</g>
<g id="Слой_2">
</g>
</svg>
