<?xml version="1.0" encoding="utf-8"?>
<!-- Generator: Adobe Illustrator 19.0.1, SVG Export Plug-In . SVG Version: 6.00 Build 0)  -->
<svg version="1.1" id="Слой_1" xmlns="http://www.w3.org/2000/svg" xmlns:xlink="http://www.w3.org/1999/xlink" x="0px" y="0px"
	 viewBox="297 171.7 1205.8 451.3" style="enable-background:new 297 171.7 1205.8 451.3;" xml:space="preserve">
<style type="text/css">
	.st0{fill:none;}
</style>
<polygon class="st0" points="468.5,298.3 468.5,171.8 297,171.8 297,275.5 297,298.3 297,402 341.1,402 423.7,402 467.8,402 
	467.8,348 423.7,348 423.7,298.3 "/>
<polygon class="st0" points="466.4,172 466.4,292.3 418.9,292.3 418.9,354.6 466.4,354.6 466.4,369.3 643.6,369.3 643.6,172 "/>
<rect x="637.1" y="171.7" class="st0" width="195.8" height="197.6"/>
<rect x="958.1" y="171.8" class="st0" width="195.5" height="197.2"/>
<polygon class="st0" points="1365.8,292.3 1323.8,292.3 1323.8,171.8 1147.3,171.8 1147.3,369.4 1323.8,369.4 1323.8,354.5 
	1365.8,354.5 "/>
<polygon class="st0" points="1499.4,220.6 1499.4,171.7 1317.9,171.7 1317.9,296.8 1361.1,296.8 1361.1,348 1317.3,348 
	1317.3,398.7 1361.1,398.7 1458.9,398.7 1502.8,398.7 1502.8,220.6 "/>
<polygon class="st0" points="1317.3,396.6 1317.3,424.8 1146.2,424.8 1146.2,623 1317.3,623 1328.3,623 1499.4,623 1499.4,396.6 "/>
<rect x="891.9" y="424.7" class="st0" width="261.8" height="198.4"/>
<rect x="636.4" y="424.7" class="st0" width="261.3" height="198.4"/>
<polygon class="st0" points="473.3,427.1 473.3,396.4 297,396.4 297,623 466.3,623 473.3,623 642.6,623 642.6,427.1 "/>
</svg>
